<mxfile host="app.diagrams.net" modified="2023-07-07T10:12:40.542Z" agent="Mozilla/5.0 (Macintosh; Intel Mac OS X 10_15_7) AppleWebKit/537.36 (KHTML, like Gecko) Chrome/114.0.0.0 Safari/537.36" etag="LxNgnfcRIHAmXClXgtIU" version="21.6.1" type="github">
  <diagram id="C5RBs43oDa-KdzZeNtuy" name="Page-1">
    <mxGraphModel dx="2901" dy="1046" grid="1" gridSize="10" guides="1" tooltips="1" connect="1" arrows="1" fold="1" page="1" pageScale="1" pageWidth="827" pageHeight="1169" math="0" shadow="0">
      <root>
        <mxCell id="WIyWlLk6GJQsqaUBKTNV-0" />
        <mxCell id="WIyWlLk6GJQsqaUBKTNV-1" parent="WIyWlLk6GJQsqaUBKTNV-0" />
        <mxCell id="FOTZAg4N7YXumiFNj8jS-5" value="" style="edgeStyle=orthogonalEdgeStyle;rounded=0;orthogonalLoop=1;jettySize=auto;html=1;" edge="1" parent="WIyWlLk6GJQsqaUBKTNV-1" source="WIyWlLk6GJQsqaUBKTNV-3" target="FOTZAg4N7YXumiFNj8jS-1">
          <mxGeometry relative="1" as="geometry" />
        </mxCell>
        <mxCell id="WIyWlLk6GJQsqaUBKTNV-3" value="CS receive request for new connector (e.g. via Typeform)" style="rounded=1;whiteSpace=wrap;html=1;fontSize=12;glass=0;strokeWidth=1;shadow=0;" parent="WIyWlLk6GJQsqaUBKTNV-1" vertex="1">
          <mxGeometry x="55" y="20" width="140" height="60" as="geometry" />
        </mxCell>
        <mxCell id="FOTZAg4N7YXumiFNj8jS-7" value="" style="edgeStyle=orthogonalEdgeStyle;rounded=0;orthogonalLoop=1;jettySize=auto;html=1;" edge="1" parent="WIyWlLk6GJQsqaUBKTNV-1" source="WIyWlLk6GJQsqaUBKTNV-7" target="FOTZAg4N7YXumiFNj8jS-6">
          <mxGeometry relative="1" as="geometry" />
        </mxCell>
        <mxCell id="WIyWlLk6GJQsqaUBKTNV-7" value="As part of &quot;CS/Connector weekly&quot; meeting connector is discussed and ticket moved to JUMPER (SCOPE) Board" style="rounded=1;whiteSpace=wrap;html=1;fontSize=12;glass=0;strokeWidth=1;shadow=0;" parent="WIyWlLk6GJQsqaUBKTNV-1" vertex="1">
          <mxGeometry x="40" y="210" width="170" height="110" as="geometry" />
        </mxCell>
        <mxCell id="FOTZAg4N7YXumiFNj8jS-4" value="" style="edgeStyle=orthogonalEdgeStyle;rounded=0;orthogonalLoop=1;jettySize=auto;html=1;" edge="1" parent="WIyWlLk6GJQsqaUBKTNV-1" source="FOTZAg4N7YXumiFNj8jS-1" target="WIyWlLk6GJQsqaUBKTNV-7">
          <mxGeometry relative="1" as="geometry" />
        </mxCell>
        <mxCell id="FOTZAg4N7YXumiFNj8jS-1" value="CS create a Jira ticket (landing in JUMPER board backlog)" style="rounded=1;whiteSpace=wrap;html=1;" vertex="1" parent="WIyWlLk6GJQsqaUBKTNV-1">
          <mxGeometry x="55" y="110" width="140" height="70" as="geometry" />
        </mxCell>
        <mxCell id="FOTZAg4N7YXumiFNj8jS-9" value="" style="edgeStyle=orthogonalEdgeStyle;rounded=0;orthogonalLoop=1;jettySize=auto;html=1;" edge="1" parent="WIyWlLk6GJQsqaUBKTNV-1" source="FOTZAg4N7YXumiFNj8jS-6" target="FOTZAg4N7YXumiFNj8jS-8">
          <mxGeometry relative="1" as="geometry" />
        </mxCell>
        <mxCell id="FOTZAg4N7YXumiFNj8jS-6" value="JUMPER SCOPE BOARD" style="ellipse;whiteSpace=wrap;html=1;aspect=fixed;" vertex="1" parent="WIyWlLk6GJQsqaUBKTNV-1">
          <mxGeometry x="65" y="390" width="120" height="120" as="geometry" />
        </mxCell>
        <mxCell id="FOTZAg4N7YXumiFNj8jS-11" value="Yes" style="edgeStyle=orthogonalEdgeStyle;rounded=0;orthogonalLoop=1;jettySize=auto;html=1;" edge="1" parent="WIyWlLk6GJQsqaUBKTNV-1" source="FOTZAg4N7YXumiFNj8jS-8" target="FOTZAg4N7YXumiFNj8jS-10">
          <mxGeometry relative="1" as="geometry" />
        </mxCell>
        <mxCell id="FOTZAg4N7YXumiFNj8jS-13" value="" style="edgeStyle=orthogonalEdgeStyle;rounded=0;orthogonalLoop=1;jettySize=auto;html=1;" edge="1" parent="WIyWlLk6GJQsqaUBKTNV-1" source="FOTZAg4N7YXumiFNj8jS-8" target="FOTZAg4N7YXumiFNj8jS-12">
          <mxGeometry relative="1" as="geometry" />
        </mxCell>
        <mxCell id="FOTZAg4N7YXumiFNj8jS-16" value="No" style="edgeStyle=orthogonalEdgeStyle;rounded=0;orthogonalLoop=1;jettySize=auto;html=1;exitX=1;exitY=0.5;exitDx=0;exitDy=0;" edge="1" parent="WIyWlLk6GJQsqaUBKTNV-1" source="FOTZAg4N7YXumiFNj8jS-8" target="FOTZAg4N7YXumiFNj8jS-12">
          <mxGeometry relative="1" as="geometry" />
        </mxCell>
        <mxCell id="FOTZAg4N7YXumiFNj8jS-8" value="Do we understand the Statement of Work &amp;amp; Request form?" style="rhombus;whiteSpace=wrap;html=1;" vertex="1" parent="WIyWlLk6GJQsqaUBKTNV-1">
          <mxGeometry x="280" y="365" width="170" height="170" as="geometry" />
        </mxCell>
        <mxCell id="FOTZAg4N7YXumiFNj8jS-23" value="" style="edgeStyle=orthogonalEdgeStyle;rounded=0;orthogonalLoop=1;jettySize=auto;html=1;" edge="1" parent="WIyWlLk6GJQsqaUBKTNV-1" source="FOTZAg4N7YXumiFNj8jS-10" target="FOTZAg4N7YXumiFNj8jS-18">
          <mxGeometry relative="1" as="geometry" />
        </mxCell>
        <mxCell id="FOTZAg4N7YXumiFNj8jS-36" style="edgeStyle=orthogonalEdgeStyle;rounded=0;orthogonalLoop=1;jettySize=auto;html=1;" edge="1" parent="WIyWlLk6GJQsqaUBKTNV-1" source="FOTZAg4N7YXumiFNj8jS-10" target="FOTZAg4N7YXumiFNj8jS-35">
          <mxGeometry relative="1" as="geometry" />
        </mxCell>
        <mxCell id="FOTZAg4N7YXumiFNj8jS-10" value="Move ticket to &quot;FORM/SOW DONE&quot; column" style="rounded=1;whiteSpace=wrap;html=1;" vertex="1" parent="WIyWlLk6GJQsqaUBKTNV-1">
          <mxGeometry x="305" y="665" width="120" height="60" as="geometry" />
        </mxCell>
        <mxCell id="FOTZAg4N7YXumiFNj8jS-17" style="edgeStyle=orthogonalEdgeStyle;rounded=0;orthogonalLoop=1;jettySize=auto;html=1;entryX=0.5;entryY=0;entryDx=0;entryDy=0;" edge="1" parent="WIyWlLk6GJQsqaUBKTNV-1" source="FOTZAg4N7YXumiFNj8jS-12" target="FOTZAg4N7YXumiFNj8jS-8">
          <mxGeometry relative="1" as="geometry">
            <Array as="points">
              <mxPoint x="580" y="315" />
              <mxPoint x="365" y="315" />
            </Array>
          </mxGeometry>
        </mxCell>
        <mxCell id="FOTZAg4N7YXumiFNj8jS-12" value="Discuss with CS/client so more information is added" style="rounded=1;whiteSpace=wrap;html=1;" vertex="1" parent="WIyWlLk6GJQsqaUBKTNV-1">
          <mxGeometry x="510" y="420" width="120" height="60" as="geometry" />
        </mxCell>
        <mxCell id="FOTZAg4N7YXumiFNj8jS-27" value="Yes" style="edgeStyle=orthogonalEdgeStyle;rounded=0;orthogonalLoop=1;jettySize=auto;html=1;" edge="1" parent="WIyWlLk6GJQsqaUBKTNV-1" source="FOTZAg4N7YXumiFNj8jS-18" target="FOTZAg4N7YXumiFNj8jS-20">
          <mxGeometry relative="1" as="geometry" />
        </mxCell>
        <mxCell id="FOTZAg4N7YXumiFNj8jS-34" value="No" style="edgeStyle=orthogonalEdgeStyle;rounded=0;orthogonalLoop=1;jettySize=auto;html=1;" edge="1" parent="WIyWlLk6GJQsqaUBKTNV-1" source="FOTZAg4N7YXumiFNj8jS-18" target="FOTZAg4N7YXumiFNj8jS-30">
          <mxGeometry relative="1" as="geometry" />
        </mxCell>
        <mxCell id="FOTZAg4N7YXumiFNj8jS-18" value="Is our progress stopped &lt;br&gt;due to problems with the API (e.g. app needs approval, scope approval etc.)" style="rhombus;whiteSpace=wrap;html=1;" vertex="1" parent="WIyWlLk6GJQsqaUBKTNV-1">
          <mxGeometry x="-5" y="570" width="260" height="250" as="geometry" />
        </mxCell>
        <mxCell id="FOTZAg4N7YXumiFNj8jS-24" value="" style="edgeStyle=orthogonalEdgeStyle;rounded=0;orthogonalLoop=1;jettySize=auto;html=1;" edge="1" parent="WIyWlLk6GJQsqaUBKTNV-1" source="FOTZAg4N7YXumiFNj8jS-20" target="FOTZAg4N7YXumiFNj8jS-22">
          <mxGeometry relative="1" as="geometry" />
        </mxCell>
        <mxCell id="FOTZAg4N7YXumiFNj8jS-20" value="Move ticket to &quot;BLOCKED BY API&quot; column" style="rounded=1;whiteSpace=wrap;html=1;" vertex="1" parent="WIyWlLk6GJQsqaUBKTNV-1">
          <mxGeometry x="-270" y="665" width="120" height="60" as="geometry" />
        </mxCell>
        <mxCell id="FOTZAg4N7YXumiFNj8jS-33" style="edgeStyle=orthogonalEdgeStyle;rounded=0;orthogonalLoop=1;jettySize=auto;html=1;entryX=0;entryY=0.5;entryDx=0;entryDy=0;" edge="1" parent="WIyWlLk6GJQsqaUBKTNV-1" source="FOTZAg4N7YXumiFNj8jS-22" target="FOTZAg4N7YXumiFNj8jS-30">
          <mxGeometry relative="1" as="geometry" />
        </mxCell>
        <mxCell id="FOTZAg4N7YXumiFNj8jS-22" value="Resolve API issues (e.g. gain approval/verification for app)" style="rounded=1;whiteSpace=wrap;html=1;" vertex="1" parent="WIyWlLk6GJQsqaUBKTNV-1">
          <mxGeometry x="-286.25" y="902.5" width="152.5" height="65" as="geometry" />
        </mxCell>
        <mxCell id="FOTZAg4N7YXumiFNj8jS-45" style="edgeStyle=orthogonalEdgeStyle;rounded=0;orthogonalLoop=1;jettySize=auto;html=1;" edge="1" parent="WIyWlLk6GJQsqaUBKTNV-1" source="FOTZAg4N7YXumiFNj8jS-28" target="FOTZAg4N7YXumiFNj8jS-44">
          <mxGeometry relative="1" as="geometry" />
        </mxCell>
        <mxCell id="FOTZAg4N7YXumiFNj8jS-28" value="Move ticket to &quot;PRODUCT SPEC WIP&quot; &lt;br&gt;(this is where you are actively working on the spec: going through API docs, adding info to the ticket, taking notes, testing in Postman)" style="rounded=1;whiteSpace=wrap;html=1;" vertex="1" parent="WIyWlLk6GJQsqaUBKTNV-1">
          <mxGeometry x="15" y="1100" width="220" height="130" as="geometry" />
        </mxCell>
        <mxCell id="FOTZAg4N7YXumiFNj8jS-39" style="edgeStyle=orthogonalEdgeStyle;rounded=0;orthogonalLoop=1;jettySize=auto;html=1;entryX=0.5;entryY=0;entryDx=0;entryDy=0;" edge="1" parent="WIyWlLk6GJQsqaUBKTNV-1" source="FOTZAg4N7YXumiFNj8jS-30" target="FOTZAg4N7YXumiFNj8jS-28">
          <mxGeometry relative="1" as="geometry" />
        </mxCell>
        <mxCell id="FOTZAg4N7YXumiFNj8jS-30" value="Move ticket to &quot;UNBLOCKED-AWAITING SPEC&quot;&lt;br&gt;(you are not working on it, just as you have not yet picked it up == nothing is blocking you but time)" style="rounded=1;whiteSpace=wrap;html=1;" vertex="1" parent="WIyWlLk6GJQsqaUBKTNV-1">
          <mxGeometry x="30" y="880" width="190" height="110" as="geometry" />
        </mxCell>
        <mxCell id="FOTZAg4N7YXumiFNj8jS-38" value="Yes" style="edgeStyle=orthogonalEdgeStyle;rounded=0;orthogonalLoop=1;jettySize=auto;html=1;entryX=0;entryY=0.5;entryDx=0;entryDy=0;" edge="1" parent="WIyWlLk6GJQsqaUBKTNV-1" source="FOTZAg4N7YXumiFNj8jS-35" target="FOTZAg4N7YXumiFNj8jS-37">
          <mxGeometry relative="1" as="geometry" />
        </mxCell>
        <mxCell id="FOTZAg4N7YXumiFNj8jS-40" value="No" style="edgeStyle=orthogonalEdgeStyle;rounded=0;orthogonalLoop=1;jettySize=auto;html=1;entryX=1;entryY=0.5;entryDx=0;entryDy=0;" edge="1" parent="WIyWlLk6GJQsqaUBKTNV-1" source="FOTZAg4N7YXumiFNj8jS-35" target="FOTZAg4N7YXumiFNj8jS-30">
          <mxGeometry relative="1" as="geometry">
            <mxPoint x="560" y="1080" as="targetPoint" />
            <Array as="points">
              <mxPoint x="610" y="935" />
            </Array>
          </mxGeometry>
        </mxCell>
        <mxCell id="FOTZAg4N7YXumiFNj8jS-35" value="Is our progress stopped &lt;br&gt;due to issue on the client side (e.g. we don&#39;t have the needed credentials)" style="rhombus;whiteSpace=wrap;html=1;" vertex="1" parent="WIyWlLk6GJQsqaUBKTNV-1">
          <mxGeometry x="480" y="570" width="260" height="250" as="geometry" />
        </mxCell>
        <mxCell id="FOTZAg4N7YXumiFNj8jS-42" style="edgeStyle=orthogonalEdgeStyle;rounded=0;orthogonalLoop=1;jettySize=auto;html=1;" edge="1" parent="WIyWlLk6GJQsqaUBKTNV-1" source="FOTZAg4N7YXumiFNj8jS-37" target="FOTZAg4N7YXumiFNj8jS-41">
          <mxGeometry relative="1" as="geometry" />
        </mxCell>
        <mxCell id="FOTZAg4N7YXumiFNj8jS-37" value="Move ticket to &quot;BLOCKED BY Client&quot; column" style="rounded=1;whiteSpace=wrap;html=1;" vertex="1" parent="WIyWlLk6GJQsqaUBKTNV-1">
          <mxGeometry x="800" y="665" width="120" height="60" as="geometry" />
        </mxCell>
        <mxCell id="FOTZAg4N7YXumiFNj8jS-43" style="edgeStyle=orthogonalEdgeStyle;rounded=0;orthogonalLoop=1;jettySize=auto;html=1;" edge="1" parent="WIyWlLk6GJQsqaUBKTNV-1" source="FOTZAg4N7YXumiFNj8jS-41" target="FOTZAg4N7YXumiFNj8jS-30">
          <mxGeometry relative="1" as="geometry">
            <Array as="points">
              <mxPoint x="450" y="980" />
              <mxPoint x="450" y="935" />
            </Array>
          </mxGeometry>
        </mxCell>
        <mxCell id="FOTZAg4N7YXumiFNj8jS-41" value="Discuss with client or CS (e.g. gain credentials in 1Password vault)" style="rounded=1;whiteSpace=wrap;html=1;" vertex="1" parent="WIyWlLk6GJQsqaUBKTNV-1">
          <mxGeometry x="783.75" y="940" width="152.5" height="65" as="geometry" />
        </mxCell>
        <mxCell id="FOTZAg4N7YXumiFNj8jS-48" style="edgeStyle=orthogonalEdgeStyle;rounded=0;orthogonalLoop=1;jettySize=auto;html=1;entryX=0;entryY=0.5;entryDx=0;entryDy=0;" edge="1" parent="WIyWlLk6GJQsqaUBKTNV-1" source="FOTZAg4N7YXumiFNj8jS-44" target="FOTZAg4N7YXumiFNj8jS-46">
          <mxGeometry relative="1" as="geometry" />
        </mxCell>
        <mxCell id="FOTZAg4N7YXumiFNj8jS-44" value="Move ticket to &quot;PRODUCT SPEC DONE&quot;&lt;br&gt;once done with spec (all info documented, tests in Postman done, you have good understanding on how you will Build the connector. This automatically moves the ticket to JUMPER BUILD Board" style="rounded=1;whiteSpace=wrap;html=1;" vertex="1" parent="WIyWlLk6GJQsqaUBKTNV-1">
          <mxGeometry x="390" y="1092.5" width="200" height="145" as="geometry" />
        </mxCell>
        <mxCell id="FOTZAg4N7YXumiFNj8jS-50" style="edgeStyle=orthogonalEdgeStyle;rounded=0;orthogonalLoop=1;jettySize=auto;html=1;" edge="1" parent="WIyWlLk6GJQsqaUBKTNV-1" source="FOTZAg4N7YXumiFNj8jS-46" target="FOTZAg4N7YXumiFNj8jS-49">
          <mxGeometry relative="1" as="geometry" />
        </mxCell>
        <mxCell id="FOTZAg4N7YXumiFNj8jS-46" value="JUMPER BUILD BOARD" style="ellipse;whiteSpace=wrap;html=1;aspect=fixed;" vertex="1" parent="WIyWlLk6GJQsqaUBKTNV-1">
          <mxGeometry x="1080" y="1102.5" width="125" height="125" as="geometry" />
        </mxCell>
        <mxCell id="FOTZAg4N7YXumiFNj8jS-52" value="Yes" style="edgeStyle=orthogonalEdgeStyle;rounded=0;orthogonalLoop=1;jettySize=auto;html=1;entryX=0;entryY=0.5;entryDx=0;entryDy=0;" edge="1" parent="WIyWlLk6GJQsqaUBKTNV-1" source="FOTZAg4N7YXumiFNj8jS-49" target="FOTZAg4N7YXumiFNj8jS-51">
          <mxGeometry relative="1" as="geometry" />
        </mxCell>
        <mxCell id="FOTZAg4N7YXumiFNj8jS-54" value="No" style="edgeStyle=orthogonalEdgeStyle;rounded=0;orthogonalLoop=1;jettySize=auto;html=1;entryX=0.5;entryY=1;entryDx=0;entryDy=0;" edge="1" parent="WIyWlLk6GJQsqaUBKTNV-1" source="FOTZAg4N7YXumiFNj8jS-49" target="FOTZAg4N7YXumiFNj8jS-53">
          <mxGeometry relative="1" as="geometry" />
        </mxCell>
        <mxCell id="FOTZAg4N7YXumiFNj8jS-49" value="Do you need Dev assistance (e.g. new block created)" style="rhombus;whiteSpace=wrap;html=1;" vertex="1" parent="WIyWlLk6GJQsqaUBKTNV-1">
          <mxGeometry x="1410" y="1055" width="230" height="220" as="geometry" />
        </mxCell>
        <mxCell id="FOTZAg4N7YXumiFNj8jS-51" value="Move to &quot;WITH DEV&quot;&lt;br&gt;(raise in jumperdev slack channel, discuss with dev, if needed look into creation of separate FT ticket)" style="rounded=1;whiteSpace=wrap;html=1;" vertex="1" parent="WIyWlLk6GJQsqaUBKTNV-1">
          <mxGeometry x="1830" y="1107.5" width="190" height="115" as="geometry" />
        </mxCell>
        <mxCell id="FOTZAg4N7YXumiFNj8jS-53" value="Move to &quot;CODING&quot;&lt;br&gt;Here you are actively working in Jumper to build the connector" style="rounded=1;whiteSpace=wrap;html=1;" vertex="1" parent="WIyWlLk6GJQsqaUBKTNV-1">
          <mxGeometry x="1450" y="740" width="150" height="100" as="geometry" />
        </mxCell>
      </root>
    </mxGraphModel>
  </diagram>
</mxfile>
